# xmcd CD database file
#
# Track frame offsets:
#	150
#	14122
#	32392
#	52075
#	66525
#	78865
#	95385
#	110967
#	128677
#	140095
#	154475
#	175890
#
# Disc length: 2519 seconds
#
# Revision: 0
# Processed by: cddbd v1.5.2PL0 Copyright (c) Steve Scherf et al.
# Submitted via: ACXtractor (MTCDDB.DLL V2003.12.21)
#
DISCID=ae09d50c
DTITLE=Brian Letton - My Heart's Still in the Bush
DYEAR=1998
DGENRE=Country
TTITLE0=The Old Rocking Chair
TTITLE1=When the Wattle Blooms
TTITLE2=The Shearers Cook
TTITLE3=Do You Really Know the Bush
TTITLE4=When Dad Played the Old Piano
TTITLE5=The Digger and His Dog
TTITLE6=My Heart's Still in the Bush
TTITLE7=Waltz On
TTITLE8=Give It A Go
TTITLE9=Lasseters Reef of Gold
TTITLE10=A Dream Ago
TTITLE11=This Land Australia
EXTD=ID3G:   2 YEAR: 1998
EXTT0=
EXTT1=
EXTT2=
EXTT3=
EXTT4=
EXTT5=
EXTT6=
EXTT7=
EXTT8=
EXTT9=
EXTT10=
EXTT11=
PLAYORDER=
